<svg width="355" height="395" viewBox="0 0 355 395" fill="none" xmlns="http://www.w3.org/2000/svg">
<g filter="url(#filter0_ii)">
<path d="M257.006 52.9371C246.382 52.9371 236.155 54.6355 226.576 57.7633C216.328 24.3191 185.221 0 148.432 0C103.299 0 66.7109 36.6019 66.7109 81.7523C66.7109 88.2762 67.4789 94.6197 68.9223 100.702C30.4055 103.418 0 135.533 0 174.756C0 215.76 33.2278 249 74.216 249H257.005C311.127 249 355 205.11 355 150.968C355 96.8263 311.127 52.9371 257.006 52.9371V52.9371Z" fill="#BDBDBD"/>
</g>
<g filter="url(#filter1_ii)">
<path d="M86.5613 394.644C86.9178 394.881 87.3931 394.881 87.7496 395C88.819 395 89.8884 394.644 90.6014 393.693L127.794 344.737C128.625 343.786 128.744 342.36 128.15 341.291C127.675 340.222 126.487 339.39 125.298 339.39L103.791 338.202L111.633 305.168C111.99 303.742 111.277 302.079 109.97 301.366C108.663 300.653 106.999 301.009 105.93 302.198L66.8364 347.113C66.0046 348.064 65.7669 349.49 66.2422 350.559C66.7175 351.748 67.9058 352.461 69.094 352.579L92.8591 353.887L84.6601 390.722C84.4225 392.386 85.1354 394.049 86.5613 394.644Z" fill="#F7E43B"/>
</g>
<g filter="url(#filter2_ii)">
<path d="M182.905 380.534C183.371 380.845 183.993 380.845 184.46 381C185.859 381 187.258 380.534 188.191 379.29L236.858 315.23C237.946 313.986 238.102 312.121 237.324 310.721C236.702 309.322 235.147 308.234 233.593 308.234L205.45 306.679L215.712 263.454C216.178 261.588 215.245 259.412 213.535 258.479C211.825 257.546 209.648 258.012 208.249 259.567L157.094 318.34C156.006 319.584 155.695 321.45 156.317 322.849C156.939 324.404 158.494 325.337 160.049 325.492L191.145 327.203L180.417 375.403C180.106 377.579 181.039 379.756 182.905 380.534Z" fill="#F7E43B"/>
</g>
<defs>
<filter id="filter0_ii" x="-16" y="-15" width="379" height="275" filterUnits="userSpaceOnUse" color-interpolation-filters="sRGB">
<feFlood flood-opacity="0" result="BackgroundImageFix"/>
<feBlend mode="normal" in="SourceGraphic" in2="BackgroundImageFix" result="shape"/>
<feColorMatrix in="SourceAlpha" type="matrix" values="0 0 0 0 0 0 0 0 0 0 0 0 0 0 0 0 0 0 127 0" result="hardAlpha"/>
<feOffset dx="8" dy="-15"/>
<feGaussianBlur stdDeviation="8.5"/>
<feComposite in2="hardAlpha" operator="arithmetic" k2="-1" k3="1"/>
<feColorMatrix type="matrix" values="0 0 0 0 0 0 0 0 0 0 0 0 0 0 0 0 0 0 0.32 0"/>
<feBlend mode="normal" in2="shape" result="effect1_innerShadow"/>
<feColorMatrix in="SourceAlpha" type="matrix" values="0 0 0 0 0 0 0 0 0 0 0 0 0 0 0 0 0 0 127 0" result="hardAlpha"/>
<feOffset dx="-18" dy="11"/>
<feGaussianBlur stdDeviation="8"/>
<feComposite in2="hardAlpha" operator="arithmetic" k2="-1" k3="1"/>
<feColorMatrix type="matrix" values="0 0 0 0 1 0 0 0 0 1 0 0 0 0 1 0 0 0 0.94 0"/>
<feBlend mode="normal" in2="effect1_innerShadow" result="effect2_innerShadow"/>
</filter>
<filter id="filter1_ii" x="58" y="291" width="76.5215" height="110" filterUnits="userSpaceOnUse" color-interpolation-filters="sRGB">
<feFlood flood-opacity="0" result="BackgroundImageFix"/>
<feBlend mode="normal" in="SourceGraphic" in2="BackgroundImageFix" result="shape"/>
<feColorMatrix in="SourceAlpha" type="matrix" values="0 0 0 0 0 0 0 0 0 0 0 0 0 0 0 0 0 0 127 0" result="hardAlpha"/>
<feOffset dx="-8" dy="6"/>
<feGaussianBlur stdDeviation="9"/>
<feComposite in2="hardAlpha" operator="arithmetic" k2="-1" k3="1"/>
<feColorMatrix type="matrix" values="0 0 0 0 1 0 0 0 0 1 0 0 0 0 1 0 0 0 0.7 0"/>
<feBlend mode="normal" in2="shape" result="effect1_innerShadow"/>
<feColorMatrix in="SourceAlpha" type="matrix" values="0 0 0 0 0 0 0 0 0 0 0 0 0 0 0 0 0 0 127 0" result="hardAlpha"/>
<feOffset dx="6" dy="-10"/>
<feGaussianBlur stdDeviation="8.5"/>
<feComposite in2="hardAlpha" operator="arithmetic" k2="-1" k3="1"/>
<feColorMatrix type="matrix" values="0 0 0 0 0 0 0 0 0 0 0 0 0 0 0 0 0 0 0.25 0"/>
<feBlend mode="normal" in2="effect1_innerShadow" result="effect2_innerShadow"/>
</filter>
<filter id="filter2_ii" x="148" y="248" width="95.81" height="139" filterUnits="userSpaceOnUse" color-interpolation-filters="sRGB">
<feFlood flood-opacity="0" result="BackgroundImageFix"/>
<feBlend mode="normal" in="SourceGraphic" in2="BackgroundImageFix" result="shape"/>
<feColorMatrix in="SourceAlpha" type="matrix" values="0 0 0 0 0 0 0 0 0 0 0 0 0 0 0 0 0 0 127 0" result="hardAlpha"/>
<feOffset dx="-8" dy="6"/>
<feGaussianBlur stdDeviation="9"/>
<feComposite in2="hardAlpha" operator="arithmetic" k2="-1" k3="1"/>
<feColorMatrix type="matrix" values="0 0 0 0 1 0 0 0 0 1 0 0 0 0 1 0 0 0 0.7 0"/>
<feBlend mode="normal" in2="shape" result="effect1_innerShadow"/>
<feColorMatrix in="SourceAlpha" type="matrix" values="0 0 0 0 0 0 0 0 0 0 0 0 0 0 0 0 0 0 127 0" result="hardAlpha"/>
<feOffset dx="6" dy="-10"/>
<feGaussianBlur stdDeviation="8.5"/>
<feComposite in2="hardAlpha" operator="arithmetic" k2="-1" k3="1"/>
<feColorMatrix type="matrix" values="0 0 0 0 0 0 0 0 0 0 0 0 0 0 0 0 0 0 0.25 0"/>
<feBlend mode="normal" in2="effect1_innerShadow" result="effect2_innerShadow"/>
</filter>
</defs>
</svg>
