<svg width="355" height="391" viewBox="0 0 355 391" fill="none" xmlns="http://www.w3.org/2000/svg">
<g filter="url(#filter0_ii)">
<path d="M257.006 52.9371C246.382 52.9371 236.155 54.6355 226.576 57.7633C216.328 24.3191 185.221 0 148.432 0C103.299 0 66.7109 36.6019 66.7109 81.7523C66.7109 88.2762 67.4789 94.6197 68.9223 100.702C30.4055 103.418 0 135.533 0 174.756C0 215.76 33.2278 249 74.216 249H257.005C311.127 249 355 205.11 355 150.968C355 96.8263 311.127 52.9371 257.006 52.9371V52.9371Z" fill="#F8F8F8"/>
</g>
<g filter="url(#filter1_ii)">
<path d="M208.838 388.283V385.88C208.838 385.036 209.812 384.517 210.526 385.036L213.253 387.049C214.357 387.828 215.85 387.633 216.629 386.595C217.409 385.491 217.214 383.997 216.175 383.218L209.292 378.024C209.032 377.829 208.902 377.504 208.902 377.179V368.414C208.902 366.466 210.98 365.232 212.669 366.206L220.266 370.556C220.525 370.751 220.72 371.011 220.785 371.336L221.824 379.842C222.019 381.205 223.187 382.114 224.551 381.984C225.915 381.79 226.824 380.621 226.694 379.257L226.304 375.881C226.174 375.037 227.083 374.452 227.863 374.842L229.94 376.011C231.109 376.66 232.603 376.27 233.252 375.102C233.901 373.933 233.512 372.439 232.343 371.79L230.265 370.621C229.551 370.167 229.616 369.128 230.395 368.803L233.512 367.505C234.745 366.985 235.33 365.557 234.81 364.323C234.291 363.089 232.862 362.505 231.629 363.024L223.707 366.401C223.382 366.531 223.058 366.531 222.798 366.336L215.201 361.985C213.513 361.011 213.513 358.609 215.201 357.635L222.668 353.284C222.928 353.09 223.317 353.09 223.577 353.22L231.499 356.596C232.732 357.115 234.161 356.531 234.68 355.297C235.2 354.064 234.615 352.635 233.382 352.116L230.265 350.817C229.486 350.492 229.421 349.389 230.135 348.999L232.213 347.83C233.382 347.181 233.771 345.687 233.122 344.519C232.473 343.35 230.979 342.96 229.811 343.61L227.733 344.778C227.018 345.233 226.109 344.584 226.174 343.74L226.564 340.363C226.759 338.999 225.785 337.831 224.421 337.636C223.058 337.441 221.889 338.415 221.694 339.779L220.655 348.285C220.59 348.609 220.395 348.869 220.136 349.064L212.539 353.414C210.85 354.388 208.773 353.155 208.773 351.207V342.506C208.773 342.181 208.902 341.856 209.162 341.662L216.175 336.467C217.279 335.688 217.473 334.13 216.629 333.091C215.85 331.987 214.292 331.792 213.253 332.636L210.526 334.649C209.812 335.169 208.838 334.649 208.838 333.805V331.402C208.838 330.039 207.734 329 206.435 329C205.072 329 204.033 330.104 204.033 331.402V333.805C204.033 334.649 203.059 335.169 202.344 334.649L199.617 332.636C198.513 331.857 197.02 332.052 196.241 333.091C195.462 334.195 195.656 335.688 196.695 336.467L203.578 341.662C203.838 341.856 203.968 342.181 203.968 342.506V351.272C203.968 353.22 201.89 354.453 200.202 353.479L192.605 349.129C192.345 348.934 192.15 348.674 192.085 348.35L191.046 339.844C190.851 338.48 189.683 337.571 188.319 337.701C186.956 337.896 186.046 339.064 186.176 340.428L186.566 343.804C186.696 344.649 185.787 345.233 185.008 344.843L183.06 343.545C181.891 342.895 180.397 343.285 179.748 344.454C179.099 345.623 179.488 347.116 180.657 347.765L182.735 348.934C183.449 349.389 183.384 350.427 182.605 350.752L179.488 352.051C178.255 352.57 177.67 353.999 178.19 355.232C178.709 356.466 180.138 357.051 181.371 356.531L189.293 353.155C189.618 353.025 189.942 353.025 190.202 353.22L197.799 357.57C199.487 358.544 199.487 360.946 197.799 361.92L190.202 366.401C189.942 366.596 189.553 366.596 189.293 366.466L181.371 363.089C180.138 362.57 178.709 363.154 178.19 364.388C177.67 365.622 178.255 367.05 179.488 367.569L182.605 368.868C183.384 369.193 183.449 370.297 182.735 370.686L180.657 371.855C179.488 372.504 179.099 373.998 179.748 375.167C180.397 376.335 181.891 376.725 183.06 376.076L185.137 374.907C185.852 374.452 186.761 375.102 186.696 375.946L186.241 379.322C186.046 380.686 187.02 381.854 188.384 382.049C189.748 382.244 190.916 381.27 191.111 379.907L192.15 371.4C192.215 371.076 192.41 370.816 192.67 370.621L200.267 366.271C201.955 365.297 204.033 366.531 204.033 368.479V377.244C204.033 377.569 203.903 377.894 203.643 378.088L196.695 383.218C195.591 383.997 195.397 385.556 196.241 386.595C197.02 387.698 198.578 387.893 199.617 387.049L202.344 385.036C203.059 384.517 204.033 385.036 204.033 385.88V388.283C204.033 389.646 205.136 390.685 206.435 390.685C207.799 390.685 208.838 389.581 208.838 388.283Z" fill="white"/>
</g>
<g filter="url(#filter2_ii)">
<path d="M275.838 326.283V323.88C275.838 323.036 276.812 322.517 277.526 323.036L280.253 325.049C281.357 325.828 282.85 325.633 283.629 324.595C284.409 323.491 284.214 321.997 283.175 321.218L276.292 316.024C276.032 315.829 275.902 315.504 275.902 315.179V306.414C275.902 304.466 277.98 303.232 279.669 304.206L287.266 308.556C287.525 308.751 287.72 309.011 287.785 309.336L288.824 317.842C289.019 319.205 290.187 320.114 291.551 319.984C292.915 319.79 293.824 318.621 293.694 317.257L293.304 313.881C293.174 313.037 294.083 312.452 294.863 312.842L296.94 314.011C298.109 314.66 299.603 314.27 300.252 313.102C300.901 311.933 300.512 310.439 299.343 309.79L297.265 308.621C296.551 308.167 296.616 307.128 297.395 306.803L300.512 305.505C301.745 304.985 302.33 303.557 301.81 302.323C301.291 301.089 299.862 300.505 298.629 301.024L290.707 304.401C290.382 304.531 290.058 304.531 289.798 304.336L282.201 299.985C280.513 299.011 280.513 296.609 282.201 295.635L289.668 291.284C289.928 291.09 290.317 291.09 290.577 291.22L298.499 294.596C299.732 295.115 301.161 294.531 301.68 293.297C302.2 292.064 301.615 290.635 300.382 290.116L297.265 288.817C296.486 288.492 296.421 287.389 297.135 286.999L299.213 285.83C300.382 285.181 300.771 283.687 300.122 282.519C299.473 281.35 297.979 280.96 296.811 281.61L294.733 282.778C294.018 283.233 293.109 282.584 293.174 281.74L293.564 278.363C293.759 276.999 292.785 275.831 291.421 275.636C290.058 275.441 288.889 276.415 288.694 277.779L287.655 286.285C287.59 286.609 287.395 286.869 287.136 287.064L279.539 291.414C277.85 292.388 275.773 291.155 275.773 289.207V280.506C275.773 280.181 275.902 279.856 276.162 279.662L283.175 274.467C284.279 273.688 284.473 272.13 283.629 271.091C282.85 269.987 281.292 269.792 280.253 270.636L277.526 272.649C276.812 273.169 275.838 272.649 275.838 271.805V269.402C275.838 268.039 274.734 267 273.435 267C272.072 267 271.033 268.104 271.033 269.402V271.805C271.033 272.649 270.059 273.169 269.344 272.649L266.617 270.636C265.513 269.857 264.02 270.052 263.241 271.091C262.462 272.195 262.656 273.688 263.695 274.467L270.578 279.662C270.838 279.856 270.968 280.181 270.968 280.506V289.272C270.968 291.22 268.89 292.453 267.202 291.479L259.605 287.129C259.345 286.934 259.15 286.674 259.085 286.35L258.046 277.844C257.851 276.48 256.683 275.571 255.319 275.701C253.956 275.896 253.046 277.064 253.176 278.428L253.566 281.804C253.696 282.649 252.787 283.233 252.008 282.843L250.06 281.545C248.891 280.895 247.397 281.285 246.748 282.454C246.099 283.623 246.488 285.116 247.657 285.765L249.735 286.934C250.449 287.389 250.384 288.427 249.605 288.752L246.488 290.051C245.255 290.57 244.67 291.999 245.19 293.232C245.709 294.466 247.138 295.051 248.371 294.531L256.293 291.155C256.618 291.025 256.942 291.025 257.202 291.22L264.799 295.57C266.487 296.544 266.487 298.946 264.799 299.92L257.202 304.401C256.942 304.596 256.553 304.596 256.293 304.466L248.371 301.089C247.138 300.57 245.709 301.154 245.19 302.388C244.67 303.622 245.255 305.05 246.488 305.569L249.605 306.868C250.384 307.193 250.449 308.297 249.735 308.686L247.657 309.855C246.488 310.504 246.099 311.998 246.748 313.167C247.397 314.335 248.891 314.725 250.06 314.076L252.137 312.907C252.852 312.452 253.761 313.102 253.696 313.946L253.241 317.322C253.046 318.686 254.02 319.854 255.384 320.049C256.748 320.244 257.916 319.27 258.111 317.907L259.15 309.4C259.215 309.076 259.41 308.816 259.67 308.621L267.267 304.271C268.955 303.297 271.033 304.531 271.033 306.479V315.244C271.033 315.569 270.903 315.894 270.643 316.088L263.695 321.218C262.591 321.997 262.397 323.556 263.241 324.595C264.02 325.698 265.578 325.893 266.617 325.049L269.344 323.036C270.059 322.517 271.033 323.036 271.033 323.88V326.283C271.033 327.646 272.136 328.685 273.435 328.685C274.799 328.685 275.838 327.581 275.838 326.283Z" fill="white"/>
</g>
<g filter="url(#filter3_ii)">
<path d="M83.8375 388.283V385.88C83.8375 385.036 84.8115 384.517 85.5258 385.036L88.2529 387.049C89.3567 387.828 90.8502 387.633 91.6294 386.595C92.4085 385.491 92.2137 383.997 91.1748 383.218L84.2921 378.024C84.0323 377.829 83.9025 377.504 83.9025 377.179V368.414C83.9025 366.466 85.9803 365.232 87.6685 366.206L95.2655 370.556C95.5253 370.751 95.7201 371.011 95.785 371.336L96.8239 379.842C97.0187 381.205 98.1875 382.114 99.551 381.984C100.915 381.79 101.824 380.621 101.694 379.257L101.304 375.881C101.174 375.037 102.083 374.452 102.863 374.842L104.94 376.011C106.109 376.66 107.603 376.27 108.252 375.102C108.901 373.933 108.512 372.439 107.343 371.79L105.265 370.621C104.551 370.167 104.616 369.128 105.395 368.803L108.512 367.505C109.745 366.985 110.33 365.557 109.81 364.323C109.291 363.089 107.862 362.505 106.629 363.024L98.7069 366.401C98.3823 366.531 98.0576 366.531 97.7979 366.336L90.2009 361.985C88.5126 361.011 88.5126 358.609 90.2009 357.635L97.668 353.284C97.9277 353.09 98.3173 353.09 98.5771 353.22L106.499 356.596C107.732 357.115 109.161 356.531 109.68 355.297C110.2 354.064 109.615 352.635 108.382 352.116L105.265 350.817C104.486 350.492 104.421 349.389 105.135 348.999L107.213 347.83C108.382 347.181 108.771 345.687 108.122 344.519C107.473 343.35 105.979 342.96 104.811 343.61L102.733 344.778C102.018 345.233 101.109 344.584 101.174 343.74L101.564 340.363C101.759 338.999 100.785 337.831 99.4212 337.636C98.0576 337.441 96.8888 338.415 96.694 339.779L95.6551 348.285C95.5902 348.609 95.3954 348.869 95.1357 349.064L87.5387 353.414C85.8504 354.388 83.7726 353.155 83.7726 351.207V342.506C83.7726 342.181 83.9025 341.856 84.1622 341.662L91.1748 336.467C92.2787 335.688 92.4735 334.13 91.6294 333.091C90.8502 331.987 89.2918 331.792 88.2529 332.636L85.5258 334.649C84.8115 335.169 83.8375 334.649 83.8375 333.805V331.402C83.8375 330.039 82.7337 329 81.4351 329C80.0715 329 79.0326 330.104 79.0326 331.402V333.805C79.0326 334.649 78.0586 335.169 77.3444 334.649L74.6172 332.636C73.5134 331.857 72.02 332.052 71.2408 333.091C70.4616 334.195 70.6564 335.688 71.6953 336.467L78.5781 341.662C78.8378 341.856 78.9677 342.181 78.9677 342.506V351.272C78.9677 353.22 76.8898 354.453 75.2016 353.479L67.6046 349.129C67.3449 348.934 67.1501 348.674 67.0851 348.35L66.0462 339.844C65.8514 338.48 64.6827 337.571 63.3191 337.701C61.9555 337.896 61.0465 339.064 61.1763 340.428L61.5659 343.804C61.6958 344.649 60.7868 345.233 60.0076 344.843L58.0596 343.545C56.8908 342.895 55.3974 343.285 54.7481 344.454C54.0988 345.623 54.4884 347.116 55.6571 347.765L57.735 348.934C58.4492 349.389 58.3843 350.427 57.6051 350.752L54.4884 352.051C53.2547 352.57 52.6703 353.999 53.1897 355.232C53.7092 356.466 55.1377 357.051 56.3714 356.531L64.2931 353.155C64.6177 353.025 64.9424 353.025 65.2021 353.22L72.7991 357.57C74.4874 358.544 74.4874 360.946 72.7991 361.92L65.2021 366.401C64.9424 366.596 64.5528 366.596 64.2931 366.466L56.3714 363.089C55.1377 362.57 53.7092 363.154 53.1897 364.388C52.6703 365.622 53.2547 367.05 54.4884 367.569L57.6051 368.868C58.3843 369.193 58.4492 370.297 57.735 370.686L55.6571 371.855C54.4884 372.504 54.0988 373.998 54.7481 375.167C55.3974 376.335 56.8908 376.725 58.0596 376.076L60.1374 374.907C60.8517 374.452 61.7607 375.102 61.6958 375.946L61.2413 379.322C61.0465 380.686 62.0205 381.854 63.384 382.049C64.7476 382.244 65.9164 381.27 66.1112 379.907L67.1501 371.4C67.215 371.076 67.4098 370.816 67.6695 370.621L75.2665 366.271C76.9548 365.297 79.0326 366.531 79.0326 368.479V377.244C79.0326 377.569 78.9027 377.894 78.643 378.088L71.6953 383.218C70.5915 383.997 70.3967 385.556 71.2408 386.595C72.02 387.698 73.5783 387.893 74.6172 387.049L77.3444 385.036C78.0586 384.517 79.0326 385.036 79.0326 385.88V388.283C79.0326 389.646 80.1364 390.685 81.4351 390.685C82.7986 390.685 83.8375 389.581 83.8375 388.283Z" fill="white"/>
</g>
<g filter="url(#filter4_ii)">
<path d="M150.838 326.283V323.88C150.838 323.036 151.812 322.517 152.526 323.036L155.253 325.049C156.357 325.828 157.85 325.633 158.629 324.595C159.409 323.491 159.214 321.997 158.175 321.218L151.292 316.024C151.032 315.829 150.902 315.504 150.902 315.179V306.414C150.902 304.466 152.98 303.232 154.669 304.206L162.266 308.556C162.525 308.751 162.72 309.011 162.785 309.336L163.824 317.842C164.019 319.205 165.187 320.114 166.551 319.984C167.915 319.79 168.824 318.621 168.694 317.257L168.304 313.881C168.174 313.037 169.083 312.452 169.863 312.842L171.94 314.011C173.109 314.66 174.603 314.27 175.252 313.102C175.901 311.933 175.512 310.439 174.343 309.79L172.265 308.621C171.551 308.167 171.616 307.128 172.395 306.803L175.512 305.505C176.745 304.985 177.33 303.557 176.81 302.323C176.291 301.089 174.862 300.505 173.629 301.024L165.707 304.401C165.382 304.531 165.058 304.531 164.798 304.336L157.201 299.985C155.513 299.011 155.513 296.609 157.201 295.635L164.668 291.284C164.928 291.09 165.317 291.09 165.577 291.22L173.499 294.596C174.732 295.115 176.161 294.531 176.68 293.297C177.2 292.064 176.615 290.635 175.382 290.116L172.265 288.817C171.486 288.492 171.421 287.389 172.135 286.999L174.213 285.83C175.382 285.181 175.771 283.687 175.122 282.519C174.473 281.35 172.979 280.96 171.811 281.61L169.733 282.778C169.018 283.233 168.109 282.584 168.174 281.74L168.564 278.363C168.759 276.999 167.785 275.831 166.421 275.636C165.058 275.441 163.889 276.415 163.694 277.779L162.655 286.285C162.59 286.609 162.395 286.869 162.136 287.064L154.539 291.414C152.85 292.388 150.773 291.155 150.773 289.207V280.506C150.773 280.181 150.902 279.856 151.162 279.662L158.175 274.467C159.279 273.688 159.473 272.13 158.629 271.091C157.85 269.987 156.292 269.792 155.253 270.636L152.526 272.649C151.812 273.169 150.838 272.649 150.838 271.805V269.402C150.838 268.039 149.734 267 148.435 267C147.072 267 146.033 268.104 146.033 269.402V271.805C146.033 272.649 145.059 273.169 144.344 272.649L141.617 270.636C140.513 269.857 139.02 270.052 138.241 271.091C137.462 272.195 137.656 273.688 138.695 274.467L145.578 279.662C145.838 279.856 145.968 280.181 145.968 280.506V289.272C145.968 291.22 143.89 292.453 142.202 291.479L134.605 287.129C134.345 286.934 134.15 286.674 134.085 286.35L133.046 277.844C132.851 276.48 131.683 275.571 130.319 275.701C128.956 275.896 128.046 277.064 128.176 278.428L128.566 281.804C128.696 282.649 127.787 283.233 127.008 282.843L125.06 281.545C123.891 280.895 122.397 281.285 121.748 282.454C121.099 283.623 121.488 285.116 122.657 285.765L124.735 286.934C125.449 287.389 125.384 288.427 124.605 288.752L121.488 290.051C120.255 290.57 119.67 291.999 120.19 293.232C120.709 294.466 122.138 295.051 123.371 294.531L131.293 291.155C131.618 291.025 131.942 291.025 132.202 291.22L139.799 295.57C141.487 296.544 141.487 298.946 139.799 299.92L132.202 304.401C131.942 304.596 131.553 304.596 131.293 304.466L123.371 301.089C122.138 300.57 120.709 301.154 120.19 302.388C119.67 303.622 120.255 305.05 121.488 305.569L124.605 306.868C125.384 307.193 125.449 308.297 124.735 308.686L122.657 309.855C121.488 310.504 121.099 311.998 121.748 313.167C122.397 314.335 123.891 314.725 125.06 314.076L127.137 312.907C127.852 312.452 128.761 313.102 128.696 313.946L128.241 317.322C128.046 318.686 129.02 319.854 130.384 320.049C131.748 320.244 132.916 319.27 133.111 317.907L134.15 309.4C134.215 309.076 134.41 308.816 134.67 308.621L142.267 304.271C143.955 303.297 146.033 304.531 146.033 306.479V315.244C146.033 315.569 145.903 315.894 145.643 316.088L138.695 321.218C137.591 321.997 137.397 323.556 138.241 324.595C139.02 325.698 140.578 325.893 141.617 325.049L144.344 323.036C145.059 322.517 146.033 323.036 146.033 323.88V326.283C146.033 327.646 147.136 328.685 148.435 328.685C149.799 328.685 150.838 327.581 150.838 326.283Z" fill="white"/>
</g>
<defs>
<filter id="filter0_ii" x="-16" y="-15" width="379" height="275" filterUnits="userSpaceOnUse" color-interpolation-filters="sRGB">
<feFlood flood-opacity="0" result="BackgroundImageFix"/>
<feBlend mode="normal" in="SourceGraphic" in2="BackgroundImageFix" result="shape"/>
<feColorMatrix in="SourceAlpha" type="matrix" values="0 0 0 0 0 0 0 0 0 0 0 0 0 0 0 0 0 0 127 0" result="hardAlpha"/>
<feOffset dx="8" dy="-15"/>
<feGaussianBlur stdDeviation="8.5"/>
<feComposite in2="hardAlpha" operator="arithmetic" k2="-1" k3="1"/>
<feColorMatrix type="matrix" values="0 0 0 0 0 0 0 0 0 0 0 0 0 0 0 0 0 0 0.32 0"/>
<feBlend mode="normal" in2="shape" result="effect1_innerShadow"/>
<feColorMatrix in="SourceAlpha" type="matrix" values="0 0 0 0 0 0 0 0 0 0 0 0 0 0 0 0 0 0 127 0" result="hardAlpha"/>
<feOffset dx="-18" dy="11"/>
<feGaussianBlur stdDeviation="8"/>
<feComposite in2="hardAlpha" operator="arithmetic" k2="-1" k3="1"/>
<feColorMatrix type="matrix" values="0 0 0 0 1 0 0 0 0 1 0 0 0 0 1 0 0 0 0.94 0"/>
<feBlend mode="normal" in2="effect1_innerShadow" result="effect2_innerShadow"/>
</filter>
<filter id="filter1_ii" x="160" y="321" width="80" height="80.6852" filterUnits="userSpaceOnUse" color-interpolation-filters="sRGB">
<feFlood flood-opacity="0" result="BackgroundImageFix"/>
<feBlend mode="normal" in="SourceGraphic" in2="BackgroundImageFix" result="shape"/>
<feColorMatrix in="SourceAlpha" type="matrix" values="0 0 0 0 0 0 0 0 0 0 0 0 0 0 0 0 0 0 127 0" result="hardAlpha"/>
<feOffset dx="-18" dy="11"/>
<feGaussianBlur stdDeviation="12.5"/>
<feComposite in2="hardAlpha" operator="arithmetic" k2="-1" k3="1"/>
<feColorMatrix type="matrix" values="0 0 0 0 1 0 0 0 0 1 0 0 0 0 1 0 0 0 0.94 0"/>
<feBlend mode="normal" in2="shape" result="effect1_innerShadow"/>
<feColorMatrix in="SourceAlpha" type="matrix" values="0 0 0 0 0 0 0 0 0 0 0 0 0 0 0 0 0 0 127 0" result="hardAlpha"/>
<feOffset dx="5" dy="-8"/>
<feGaussianBlur stdDeviation="8.5"/>
<feComposite in2="hardAlpha" operator="arithmetic" k2="-1" k3="1"/>
<feColorMatrix type="matrix" values="0 0 0 0 0 0 0 0 0 0 0 0 0 0 0 0 0 0 0.25 0"/>
<feBlend mode="normal" in2="effect1_innerShadow" result="effect2_innerShadow"/>
</filter>
<filter id="filter2_ii" x="227" y="259" width="80" height="80.6852" filterUnits="userSpaceOnUse" color-interpolation-filters="sRGB">
<feFlood flood-opacity="0" result="BackgroundImageFix"/>
<feBlend mode="normal" in="SourceGraphic" in2="BackgroundImageFix" result="shape"/>
<feColorMatrix in="SourceAlpha" type="matrix" values="0 0 0 0 0 0 0 0 0 0 0 0 0 0 0 0 0 0 127 0" result="hardAlpha"/>
<feOffset dx="-18" dy="11"/>
<feGaussianBlur stdDeviation="12.5"/>
<feComposite in2="hardAlpha" operator="arithmetic" k2="-1" k3="1"/>
<feColorMatrix type="matrix" values="0 0 0 0 1 0 0 0 0 1 0 0 0 0 1 0 0 0 0.94 0"/>
<feBlend mode="normal" in2="shape" result="effect1_innerShadow"/>
<feColorMatrix in="SourceAlpha" type="matrix" values="0 0 0 0 0 0 0 0 0 0 0 0 0 0 0 0 0 0 127 0" result="hardAlpha"/>
<feOffset dx="5" dy="-8"/>
<feGaussianBlur stdDeviation="8.5"/>
<feComposite in2="hardAlpha" operator="arithmetic" k2="-1" k3="1"/>
<feColorMatrix type="matrix" values="0 0 0 0 0 0 0 0 0 0 0 0 0 0 0 0 0 0 0.25 0"/>
<feBlend mode="normal" in2="effect1_innerShadow" result="effect2_innerShadow"/>
</filter>
<filter id="filter3_ii" x="35" y="321" width="80" height="80.6852" filterUnits="userSpaceOnUse" color-interpolation-filters="sRGB">
<feFlood flood-opacity="0" result="BackgroundImageFix"/>
<feBlend mode="normal" in="SourceGraphic" in2="BackgroundImageFix" result="shape"/>
<feColorMatrix in="SourceAlpha" type="matrix" values="0 0 0 0 0 0 0 0 0 0 0 0 0 0 0 0 0 0 127 0" result="hardAlpha"/>
<feOffset dx="-18" dy="11"/>
<feGaussianBlur stdDeviation="12.5"/>
<feComposite in2="hardAlpha" operator="arithmetic" k2="-1" k3="1"/>
<feColorMatrix type="matrix" values="0 0 0 0 1 0 0 0 0 1 0 0 0 0 1 0 0 0 0.94 0"/>
<feBlend mode="normal" in2="shape" result="effect1_innerShadow"/>
<feColorMatrix in="SourceAlpha" type="matrix" values="0 0 0 0 0 0 0 0 0 0 0 0 0 0 0 0 0 0 127 0" result="hardAlpha"/>
<feOffset dx="5" dy="-8"/>
<feGaussianBlur stdDeviation="8.5"/>
<feComposite in2="hardAlpha" operator="arithmetic" k2="-1" k3="1"/>
<feColorMatrix type="matrix" values="0 0 0 0 0 0 0 0 0 0 0 0 0 0 0 0 0 0 0.25 0"/>
<feBlend mode="normal" in2="effect1_innerShadow" result="effect2_innerShadow"/>
</filter>
<filter id="filter4_ii" x="102" y="259" width="80" height="80.6852" filterUnits="userSpaceOnUse" color-interpolation-filters="sRGB">
<feFlood flood-opacity="0" result="BackgroundImageFix"/>
<feBlend mode="normal" in="SourceGraphic" in2="BackgroundImageFix" result="shape"/>
<feColorMatrix in="SourceAlpha" type="matrix" values="0 0 0 0 0 0 0 0 0 0 0 0 0 0 0 0 0 0 127 0" result="hardAlpha"/>
<feOffset dx="-18" dy="11"/>
<feGaussianBlur stdDeviation="12.5"/>
<feComposite in2="hardAlpha" operator="arithmetic" k2="-1" k3="1"/>
<feColorMatrix type="matrix" values="0 0 0 0 1 0 0 0 0 1 0 0 0 0 1 0 0 0 0.94 0"/>
<feBlend mode="normal" in2="shape" result="effect1_innerShadow"/>
<feColorMatrix in="SourceAlpha" type="matrix" values="0 0 0 0 0 0 0 0 0 0 0 0 0 0 0 0 0 0 127 0" result="hardAlpha"/>
<feOffset dx="5" dy="-8"/>
<feGaussianBlur stdDeviation="8.5"/>
<feComposite in2="hardAlpha" operator="arithmetic" k2="-1" k3="1"/>
<feColorMatrix type="matrix" values="0 0 0 0 0 0 0 0 0 0 0 0 0 0 0 0 0 0 0.25 0"/>
<feBlend mode="normal" in2="effect1_innerShadow" result="effect2_innerShadow"/>
</filter>
</defs>
</svg>
